<?xml version="1.0" encoding="UTF-8"?>
<svg width="258px" height="80px" viewBox="0 0 323 100" version="1.1" xmlns="http://www.w3.org/2000/svg" xmlns:xlink="http://www.w3.org/1999/xlink">
    <!-- Generator: Sketch 55.2 (78181) - https://sketchapp.com -->
    <title>Group 6</title>
    <desc>Created with Sketch.</desc>
    <defs>
        <linearGradient x1="9.36558493%" y1="73.1457015%" x2="100%" y2="12.8182108%" id="linearGradient-1">
            <stop stop-color="#6F52A5" offset="0%"></stop>
            <stop stop-color="#FF7D9F" offset="100%"></stop>
        </linearGradient>
        <linearGradient x1="9.36558493%" y1="58.8319963%" x2="119.470414%" y2="40.1865483%" id="linearGradient-2">
            <stop stop-color="#6F52A5" offset="0%"></stop>
            <stop stop-color="#FF7D9F" offset="100%"></stop>
        </linearGradient>
    </defs>
    <g id="Page-1" stroke="none" stroke-width="1" fill="none" fill-rule="evenodd">
        <g id="Artboard" transform="translate(-664.000000, -118.000000)" fill-rule="nonzero">
            <g id="Group-6" transform="translate(664.000000, 118.000000)">
                <g id="Group-7" transform="translate(0.688943, 0.937145)">
                    <path d="M305.545427,85.6678617 L305.545427,95.8573751 L303.398528,95.8573751 L303.398528,85.6678617 L299.550624,85.6678617 L299.550624,83.7604245 L309.566734,83.7604245 L309.566734,85.6678617 L305.545427,85.6678617 Z M322.249953,95.8656324 L320.169113,95.8656324 L318.914002,89.3423621 L316.478098,96.0225211 L315.710168,96.0225211 L313.274264,89.3423621 L311.96961,95.8656324 L309.897026,95.8656324 L312.332931,83.7604245 L313.472439,83.7604245 L316.090004,91.9103837 L318.649769,83.7604245 L319.781019,83.7604245 L322.249953,95.8656324 Z" id="TM" fill="url(#linearGradient-1)"></path>
                    <path d="M16.4943413,62.8688162 L16.4943413,97.0628545 L1.42108547e-13,97.0628545 L1.42108547e-13,4.1870251 C10.9962825,3.72179776 17.424782,3.48918758 19.2856914,3.48918758 C33.9614992,3.48918758 44.693287,5.74127704 51.4813768,10.2455235 C58.2694665,14.74977 61.6634605,21.7809413 61.6634605,31.3392484 C61.6634605,52.6551192 49.1025108,63.3128946 23.9802346,63.3128946 C22.1193253,63.3128946 19.6240525,63.16487 16.4943413,62.8688162 Z M16.4943413,18.4609743 L16.4943413,48.2142284 C19.2857053,48.5102821 21.4849288,48.6583068 23.0920778,48.6583068 C30.620302,48.6583068 36.1183608,47.4000972 39.5864191,44.8836402 C43.0544774,42.3671833 44.7884806,38.2753588 44.7884806,32.6080439 C44.7884806,22.96515 37.0277591,18.1437754 21.5060834,18.1437754 C19.7720543,18.1437754 18.1014903,18.2495073 16.4943413,18.4609743 Z M129.861218,67.9439982 L81.3297905,67.9439982 C81.6258443,73.3575526 83.4867257,77.5656822 86.9124906,80.5685132 C90.3382556,83.5713442 94.9481664,85.0727372 100.742361,85.0727372 C107.974532,85.0727372 113.472591,83.1907094 117.236703,79.4265973 L123.390361,91.5435942 C117.807633,96.0689873 109.475959,98.33165 98.3950898,98.33165 C88.0332082,98.33165 79.8389859,95.2971445 73.8121773,89.2280424 C67.7853686,83.1589403 64.7720094,74.6898152 64.7720094,63.8204128 C64.7720094,53.1201841 68.0814179,44.4501683 74.7003341,37.8101054 C81.3192503,31.1700425 89.259716,27.8500609 98.5219693,27.8500609 C108.37633,27.8500609 116.285076,30.7894077 122.248445,36.6681895 C128.211813,42.5469713 131.193453,50.0327898 131.193453,59.1258695 C131.193453,61.0713657 130.749379,64.0107125 129.861218,67.9439982 Z M81.9007485,56.0173206 L115.27007,56.0173206 C114.170441,46.078373 108.672383,41.1089737 98.7757284,41.1089737 C89.724942,41.1089737 84.100005,46.078373 81.9007485,56.0173206 Z M181.691513,90.2747987 C180.253538,92.6432287 177.747692,94.5781225 174.1739,96.079538 C170.600108,97.5809535 166.867772,98.33165 162.97678,98.33165 C155.660023,98.33165 149.908207,96.5024881 145.721161,92.8441095 C141.534115,89.1857309 139.440624,83.9942946 139.440624,77.269645 C139.440624,69.4030736 142.390544,63.2494771 148.290472,58.8086707 C154.190401,54.3678643 162.57494,52.1474944 173.444343,52.1474944 C175.305252,52.1474944 177.504475,52.4646901 180.042079,53.099091 C180.042079,45.1056395 174.988094,41.1089737 164.879973,41.1089737 C158.916605,41.1089737 153.926059,42.1028535 149.908186,44.0906431 L146.482439,31.7833269 C151.938286,29.1611364 158.430225,27.8500609 165.958449,27.8500609 C176.320331,27.8500609 183.911881,30.2078822 188.733328,34.9235957 C193.554775,39.6393091 195.965462,48.5736547 195.965462,61.7269003 L195.965462,76.2546086 C195.965462,85.3053949 197.784051,90.9937711 201.421283,93.3199078 C200.110188,95.6037511 198.651088,97.0099854 197.043939,97.5386528 C195.43679,98.0673202 193.597055,98.33165 191.524678,98.33165 C189.240835,98.33165 187.189636,97.4857948 185.37102,95.794059 C183.552404,94.1023233 182.325914,92.2625882 181.691513,90.2747987 Z M180.168959,65.0892083 C177.462181,64.5393942 175.432129,64.2644913 174.07874,64.2644913 C161.559896,64.2644913 155.300567,68.366889 155.300567,76.5718074 C155.300567,82.6620562 158.832013,85.7071349 165.895009,85.7071349 C175.411023,85.7071349 180.168959,80.9491994 180.168959,71.4331857 L180.168959,65.0892083 Z M252.363422,43.9003237 C249.529764,42.0394144 246.421246,41.1089737 243.037775,41.1089737 C239.35825,41.1089737 236.091134,42.7795377 233.23633,46.1207158 C230.381526,49.461894 228.954145,53.5431453 228.954145,58.3645923 L228.954145,97.0628545 L213.094201,97.0628545 L213.094201,29.1188564 L228.954145,29.1188564 L228.954145,35.3359542 C233.394951,30.3453337 239.294791,27.8500609 246.653842,27.8500609 C252.067397,27.8500609 256.212087,28.6747697 259.088038,30.3242121 L252.363422,43.9003237 Z M271.331914,3.80638645 L287.191858,-7.10542736e-15 L287.191858,76.3814881 C287.191858,84.7555802 289.687131,89.7461258 294.677751,91.3532748 C292.224734,96.0055482 288.037751,98.33165 282.116676,98.33165 C274.926799,98.33165 271.331914,93.3411043 271.331914,83.3598633 L271.331914,3.80638645 Z" id="Pearl" fill="url(#linearGradient-2)"></path>
                </g>
            </g>
        </g>
    </g>
</svg>
