<svg id="Layer_1" data-name="Layer 1" xmlns="http://www.w3.org/2000/svg" xmlns:xlink="http://www.w3.org/1999/xlink" viewBox="0 0 100.68 141.7"><defs><style>.cls-1{fill:url(#linear-gradient);}.cls-2{fill:url(#linear-gradient-2);}.cls-3{fill:url(#radial-gradient);}.cls-4{fill:url(#radial-gradient-2);}.cls-5{fill:url(#radial-gradient-3);}.cls-6{fill:#fff;}</style><linearGradient id="linear-gradient" x1="50.34" y1="40.77" x2="50.34" y2="96.1" gradientTransform="matrix(1, 0, 0, -1, 0, 144)" gradientUnits="userSpaceOnUse"><stop offset="0" stop-color="#cd33b4"/><stop offset="0.04" stop-color="#c233b1"/><stop offset="0.2" stop-color="#9631a4"/><stop offset="0.36" stop-color="#722f9a"/><stop offset="0.52" stop-color="#562e91"/><stop offset="0.68" stop-color="#422e8c"/><stop offset="0.84" stop-color="#362d88"/><stop offset="1" stop-color="#322d87"/></linearGradient><linearGradient id="linear-gradient-2" x1="50.35" y1="60.65" x2="50.35" y2="120.96" gradientTransform="matrix(1, 0, 0, -1, 0, 144)" gradientUnits="userSpaceOnUse"><stop offset="0" stop-color="#ffd280"/><stop offset="0.02" stop-color="#fdcc7c"/><stop offset="0.16" stop-color="#eda663"/><stop offset="0.31" stop-color="#e0864e"/><stop offset="0.46" stop-color="#d66d3e"/><stop offset="0.63" stop-color="#cf5c32"/><stop offset="0.8" stop-color="#ca512b"/><stop offset="1" stop-color="#c94e29"/></linearGradient><radialGradient id="radial-gradient" cx="50.34" cy="111.16" r="32.84" gradientTransform="matrix(1, 0, 0, -1, 0, 144)" gradientUnits="userSpaceOnUse"><stop offset="0" stop-color="#ffd280"/><stop offset="0.43" stop-color="#fed07f"/><stop offset="0.58" stop-color="#fbc97a"/><stop offset="0.69" stop-color="#f7be72"/><stop offset="0.78" stop-color="#f0ad67"/><stop offset="0.85" stop-color="#e79759"/><stop offset="0.92" stop-color="#dc7b47"/><stop offset="0.98" stop-color="#cf5c32"/><stop offset="1" stop-color="#c94e29"/></radialGradient><radialGradient id="radial-gradient-2" cx="49.63" cy="123.91" fx="6.3899993896484375" r="43.24" gradientTransform="matrix(1, 0, 0, -1, 0, 144)" gradientUnits="userSpaceOnUse"><stop offset="0" stop-color="#ffd280" stop-opacity="0"/><stop offset="0.12" stop-color="#fbcb80" stop-opacity="0.04"/><stop offset="0.29" stop-color="#f1b680" stop-opacity="0.16"/><stop offset="0.49" stop-color="#e09580" stop-opacity="0.35"/><stop offset="0.72" stop-color="#c8677f" stop-opacity="0.61"/><stop offset="0.96" stop-color="#aa2c7f" stop-opacity="0.94"/><stop offset="1" stop-color="#a5227f"/></radialGradient><radialGradient id="radial-gradient-3" cx="37.74" cy="127.37" fx="11.080001831054688" r="26.66" gradientTransform="matrix(1, 0, 0, -1, 0, 144)" gradientUnits="userSpaceOnUse"><stop offset="0" stop-color="#fff"/><stop offset="0.08" stop-color="#fff" stop-opacity="0.88"/><stop offset="0.28" stop-color="#fff" stop-opacity="0.61"/><stop offset="0.46" stop-color="#fff" stop-opacity="0.39"/><stop offset="0.63" stop-color="#fff" stop-opacity="0.22"/><stop offset="0.78" stop-color="#fff" stop-opacity="0.1"/><stop offset="0.91" stop-color="#fff" stop-opacity="0.03"/><stop offset="1" stop-color="#fff" stop-opacity="0"/></radialGradient></defs><title>Artboard 1</title><g id="Layer_2" data-name="Layer 2"><g id="Layer_1-2" data-name="Layer 1-2"><path class="cls-1" d="M39.86,100.52,6.18,81.85a7.17,7.17,0,0,1,0-12.56L39.86,50.62a21.64,21.64,0,0,1,21,0L94.5,69.29a7.17,7.17,0,0,1,0,12.56L60.82,100.52A21.64,21.64,0,0,1,39.86,100.52Z"/><path class="cls-2" d="M50.34,83.35a24,24,0,0,1-11.68-3L5,61.64A9.65,9.65,0,0,1,5,44.75L38.66,26.09a23.92,23.92,0,0,1,23.36,0L95.7,44.75a9.65,9.65,0,0,1,0,16.89L62,80.31A24.12,24.12,0,0,1,50.34,83.35Zm0-55.35A19.17,19.17,0,0,0,41,30.42L7.38,49.08a4.71,4.71,0,0,0,0,8.24L41,76a19.08,19.08,0,0,0,18.58,0L93.3,57.32a4.71,4.71,0,0,0,0-8.24L59.63,30.42A19.17,19.17,0,0,0,50.34,28Z"/><circle class="cls-3" cx="50.34" cy="32.84" r="32.84"/><circle class="cls-4" cx="50.34" cy="32.84" r="32.84"/><circle class="cls-5" cx="50.34" cy="32.84" r="32.84"/><path class="cls-6" d="M17.88,113.58a9.2,9.2,0,0,1,6.69,2.68,9.26,9.26,0,0,1-6.69,15.83H13v9H7.6V113.58Zm0,13.43a4.18,4.18,0,0,0,0-8.35H13V127Z"/><path class="cls-6" d="M32.61,133.39c.67,2.48,2.52,3.7,5.55,3.7a5.22,5.22,0,0,0,4.41-2l4.1,2.36a9.79,9.79,0,0,1-8.59,4.22,10.54,10.54,0,0,1-7.83-3,10.09,10.09,0,0,1-3-7.44,10.2,10.2,0,0,1,2.92-7.41,10,10,0,0,1,7.48-3,9.33,9.33,0,0,1,7.13,3,10.36,10.36,0,0,1,2.83,7.41,13.15,13.15,0,0,1-.2,2.09Zm10-3.94a4.76,4.76,0,0,0-4.88-4,4.91,4.91,0,0,0-5.16,4Z"/><path class="cls-6" d="M65.17,121.45h5.09v19.69H65.17v-2.32a7.7,7.7,0,0,1-6.41,2.88,9,9,0,0,1-6.78-3,11.17,11.17,0,0,1,0-14.77,9,9,0,0,1,6.78-3,7.7,7.7,0,0,1,6.41,2.88Zm-5.47,15.4a5.28,5.28,0,0,0,3.9-1.53,5.46,5.46,0,0,0,1.57-4,5.28,5.28,0,0,0-1.57-4,5.63,5.63,0,0,0-7.8,0,5.4,5.4,0,0,0-1.53,4,5.6,5.6,0,0,0,1.53,4,5.31,5.31,0,0,0,3.9,1.53Z"/><path class="cls-6" d="M79.36,124.84a6,6,0,0,1,6-3.78v5.67a5.9,5.9,0,0,0-4.18,1,4.5,4.5,0,0,0-1.81,4v9.41H74.28V121.45h5.08Z"/><path class="cls-6" d="M88,141.14V112.4h5.08v28.74Z"/></g></g></svg>